<?xml version="1.0" encoding="UTF-8" standalone="no"?>
<!-- Created with Inkscape (http://www.inkscape.org/) -->

<svg
   xmlns:dc="http://purl.org/dc/elements/1.1/"
   xmlns:cc="http://creativecommons.org/ns#"
   xmlns:rdf="http://www.w3.org/1999/02/22-rdf-syntax-ns#"
   xmlns:svg="http://www.w3.org/2000/svg"
   xmlns="http://www.w3.org/2000/svg"
   xmlns:sodipodi="http://sodipodi.sourceforge.net/DTD/sodipodi-0.dtd"
   xmlns:inkscape="http://www.inkscape.org/namespaces/inkscape"
   width="744.09448819"
   height="1052.3622047"
   id="svg3832"
   version="1.1"
   inkscape:version="0.48.5 r10040"
   sodipodi:docname="New document 3">
  <defs
     id="defs3834" />
  <sodipodi:namedview
     id="base"
     pagecolor="#ffffff"
     bordercolor="#666666"
     borderopacity="1.0"
     inkscape:pageopacity="0.0"
     inkscape:pageshadow="2"
     inkscape:zoom="3.959798"
     inkscape:cx="248.49807"
     inkscape:cy="647.57296"
     inkscape:document-units="px"
     inkscape:current-layer="layer1"
     showgrid="false"
     inkscape:window-width="1366"
     inkscape:window-height="705"
     inkscape:window-x="-8"
     inkscape:window-y="-8"
     inkscape:window-maximized="1" />
  <metadata
     id="metadata3837">
    <rdf:RDF>
      <cc:Work
         rdf:about="">
        <dc:format>image/svg+xml</dc:format>
        <dc:type
           rdf:resource="http://purl.org/dc/dcmitype/StillImage" />
        <dc:title></dc:title>
      </cc:Work>
    </rdf:RDF>
  </metadata>
  <g
     inkscape:label="Layer 1"
     inkscape:groupmode="layer"
     id="layer1">
    <g
       id="g3944"
       transform="matrix(0.64871668,0,0,1,97.072968,0)"
       style="stroke-width:3.72472078;stroke-miterlimit:4;stroke-dasharray:none">
      <path
         style="fill:none;stroke:#0f0c0c;stroke-width:3;stroke-miterlimit:4;stroke-opacity:1;stroke-dasharray:none"
         d="m 252.40625,358.96875 c -6.38505,4.1949 -16.52116,0.16928 -28.46875,5.3125 -13.68966,5.89314 -12.14752,38.96312 -29,29.0625 -0.17914,1.93552 -0.28125,3.90734 -0.28125,5.90625 0,26.82526 16.62082,48.59375 37.09375,48.59375 4.98826,0 22.2822,-4.82816 27.03125,-14.90625 -8.2939,-2.10569 -6.10982,-0.22678 -14.19336,-5.24318 10.73833,1.05166 4.33367,0.15692 14.70684,1.97383 0.48742,-1.39462 2.89429,-12.01225 4.17402,-15.60565 3.42258,2.99579 4.00512,2.86945 7.5,3.625 2.25498,-5.81034 -2.32044,-13.17098 -2.21875,-16.40625 -2.36213,-0.0912 -4.46375,-2.10054 -5.84375,-5.25 C 264.19411,393.59704 265,390.27568 265,386.625 c 0,-3.3991 -0.6783,-6.46691 -1.8125,-8.84375 0.3292,-0.67505 0.66835,-1.29574 1.0625,-1.84375 -2.85639,-6.82535 -6.94078,-12.63729 -11.84375,-16.96875 z"
         transform="matrix(1.541505,0,0,1,-149.63846,0)"
         id="path3840"
         inkscape:connector-curvature="0"
         sodipodi:nodetypes="cscsscccccccsccc" />
      <path
         inkscape:connector-curvature="0"
         id="path3842"
         d="m 265.01935,373.42146 c 6.55967,0 11.8693,6.30721 11.8693,14.11399 0,7.80678 -5.30963,14.14415 -11.8693,14.14415 -3.74504,0 -7.0869,-2.05468 -9.26384,-5.27767 1.98524,-2.43421 3.20671,-5.75865 3.20671,-9.40933 0,-3.3991 -1.0575,-6.48964 -2.80587,-8.86648 2.17487,-2.89308 5.34448,-4.70466 8.863,-4.70466 z"
         style="fill:none;stroke:#0f0c0c;stroke-width:3.72472072;stroke-miterlimit:4;stroke-opacity:1;stroke-dasharray:none" />
      <path
         sodipodi:nodetypes="csccc"
         id="path3842-7-4"
         d="m 242.18672,372.00646 c 9.20522,0 16.65625,6.87464 16.65625,15.38375 0,8.50912 -7.45103,15.41663 -16.65625,15.41663 -8.00746,0.11337 -14.28969,-5.42027 -14.21429,-16.00831 1.40575,-8.60308 6.56924,-14.67648 14.21429,-14.79207 z"
         style="fill:none;stroke:#0f0c0c;stroke-width:3.72472078;stroke-miterlimit:4;stroke-opacity:1;stroke-dasharray:none"
         inkscape:connector-curvature="0" />
      <path
         d="m 271.42858,386.82648 c 0,0.69035 -0.4797,1.25 -1.07143,1.25 -0.59174,0 -1.07143,-0.55965 -1.07143,-1.25 0,-0.69036 0.47969,-1.25 1.07143,-1.25 0.59173,0 1.07143,0.55964 1.07143,1.25 z"
         sodipodi:ry="1.25"
         sodipodi:rx="1.0714285"
         sodipodi:cy="386.82648"
         sodipodi:cx="270.35715"
         id="path3924"
         style="fill:none;stroke:#0f0c0c;stroke-width:3.72472078;stroke-miterlimit:4;stroke-opacity:1;stroke-dasharray:none"
         sodipodi:type="arc" />
      <path
         d="m 271.42858,386.82648 c 0,0.69035 -0.4797,1.25 -1.07143,1.25 -0.59174,0 -1.07143,-0.55965 -1.07143,-1.25 0,-0.69036 0.47969,-1.25 1.07143,-1.25 0.59173,0 1.07143,0.55964 1.07143,1.25 z"
         sodipodi:ry="1.25"
         sodipodi:rx="1.0714285"
         sodipodi:cy="386.82648"
         sodipodi:cx="270.35715"
         id="path3924-0"
         style="fill:none;stroke:#0f0c0c;stroke-width:3.72472078;stroke-miterlimit:4;stroke-opacity:1;stroke-dasharray:none"
         sodipodi:type="arc"
         transform="translate(-18.928575,-0.17858097)" />
      <path
         style="fill:none;stroke:#0f0c0c;stroke-width:3.72472072;stroke-miterlimit:4;stroke-opacity:1;stroke-dasharray:none"
         d="m 245.38608,354.23493 c -8.63177,11.06812 -27.05497,3.4575 -49.76491,9.79949 -22.70994,6.34199 -18.23314,44.1876 -51.16093,26.04634 -8.91544,-4.91189 7.50003,-34.84096 33.41477,-41.6193 11.85218,-3.10009 28.22589,-5.32073 42.8125,-4.06319 16.23319,1.3995 28.88593,5.39236 24.69857,9.83666 z"
         id="path4469"
         inkscape:connector-curvature="0"
         sodipodi:nodetypes="cssssc" />
    </g>
    <path
       style="fill:none;stroke:#000000;stroke-width:3;stroke-linecap:butt;stroke-linejoin:miter;stroke-miterlimit:4;stroke-opacity:1;stroke-dasharray:none"
       d="m 246.20142,371.42817 c 14.28572,-1.35643 14.28572,-1.16923 14.28572,-1.20141 l 16.0968,2.13235"
       id="path4465"
       inkscape:connector-curvature="0"
       sodipodi:nodetypes="ccc" />
  </g>
</svg>
