<?xml version="1.0" encoding="UTF-8" standalone="no"?>
<!-- Created with Inkscape (http://www.inkscape.org/) -->

<svg
   xmlns:dc="http://purl.org/dc/elements/1.1/"
   xmlns:cc="http://creativecommons.org/ns#"
   xmlns:rdf="http://www.w3.org/1999/02/22-rdf-syntax-ns#"
   xmlns:svg="http://www.w3.org/2000/svg"
   xmlns="http://www.w3.org/2000/svg"
   xmlns:sodipodi="http://sodipodi.sourceforge.net/DTD/sodipodi-0.dtd"
   xmlns:inkscape="http://www.inkscape.org/namespaces/inkscape"
   width="744.09448819"
   height="1052.3622047"
   id="svg2"
   version="1.1"
   inkscape:version="0.48.5 r10040"
   sodipodi:docname="groups.svg">
  <defs
     id="defs4" />
  <sodipodi:namedview
     id="base"
     pagecolor="#ffffff"
     bordercolor="#666666"
     borderopacity="1.0"
     inkscape:pageopacity="0.0"
     inkscape:pageshadow="2"
     inkscape:zoom="0.35"
     inkscape:cx="-70.714286"
     inkscape:cy="913.6039"
     inkscape:document-units="px"
     inkscape:current-layer="flowRoot3778"
     showgrid="false"
     inkscape:window-width="939"
     inkscape:window-height="573"
     inkscape:window-x="78"
     inkscape:window-y="78"
     inkscape:window-maximized="0" />
  <metadata
     id="metadata7">
    <rdf:RDF>
      <cc:Work
         rdf:about="">
        <dc:format>image/svg+xml</dc:format>
        <dc:type
           rdf:resource="http://purl.org/dc/dcmitype/StillImage" />
        <dc:title></dc:title>
      </cc:Work>
    </rdf:RDF>
  </metadata>
  <g
     inkscape:label="Layer 1"
     inkscape:groupmode="layer"
     id="layer1">
    <g
       id="g3759"
       transform="matrix(0.65958485,0,0,0.65958485,-18.877183,-118.43936)">
      <desc
         id="desc3763">{&quot;start&quot;: 0, &quot;duration&quot;: 100}</desc>
      <rect
         y="283.79074"
         x="131.42857"
         height="197.14285"
         width="385.71429"
         id="rect2985"
         style="fill:none;stroke:#0f0c0c;stroke-width:4.46700001;stroke-miterlimit:4;stroke-opacity:1;stroke-dasharray:none" />
      <path
         inkscape:connector-curvature="0"
         id="path2987"
         d="M 134.28571,769.50504 271.42857,643.79075"
         style="fill:none;stroke:#0f0c0c;stroke-width:4.46700001;stroke-linecap:butt;stroke-linejoin:miter;stroke-miterlimit:4;stroke-opacity:1;stroke-dasharray:none" />
    </g>
    <g
       id="g3772">
      <g
         id="g3765">
        <desc
           id="desc3768">{&quot;start&quot;: 100, &quot;duration&quot;: 1000}</desc>
        <path
           style="fill:none;stroke:#0f0c0c;stroke-width:2.94636559;stroke-linecap:butt;stroke-linejoin:miter;stroke-miterlimit:4;stroke-opacity:1;stroke-dasharray:none"
           d="m 246.84129,404.19073 c 0,-18.84528 0,-37.69056 0,-56.53584 0,-5.65359 -0.28233,-11.31422 0,-16.96076 1.58754,-31.75095 1.57537,-9.48189 3.76905,-35.80603 0.44152,-5.29815 0,-11.53484 0,-16.96075 0,-0.62818 -0.44419,-1.44035 0,-1.88453 0.44419,-0.44419 1.25636,0 1.88453,0 0.62818,-1.25635 1.44034,-2.43649 1.88453,-3.76906 0.39729,-1.19188 -0.88838,-2.88068 0,-3.76905 0.44419,-0.44419 1.25635,0 1.88453,0 0.62818,0 1.25635,0 1.88453,0 1.88452,0 3.76906,0 5.65358,0 1.88453,0 3.82532,-0.45707 5.65359,0 3.28182,0.82046 6.2134,2.69931 9.42264,3.76905 2.45712,0.81905 5.08098,1.06549 7.53811,1.88453 1.33256,0.44419 2.40635,1.54385 3.76906,1.88453 2.43768,0.60942 5.0742,-0.49278 7.53811,0 1.62487,0.32497 11.79167,4.25356 13.19169,5.65358 2.22095,2.22094 3.43265,5.31718 5.65359,7.53812 9.79497,9.79497 1.96298,-1.78647 9.42264,7.53811 1.41489,1.7686 2.16751,4.05204 3.76906,5.65358 0.44418,0.44419 1.44034,-0.44419 1.88452,0 0.44419,0.44419 -0.19864,1.28859 0,1.88453 0.44419,1.33257 1.44035,2.43649 1.88453,3.76906 0.19865,0.59593 0,1.25635 0,1.88453 0,1.25635 0,2.5127 0,3.76905 0,0.47597 0,8.05854 0,9.42264 0,8.79446 0,17.58893 0,26.3834 0,1.88452 0,3.76906 0,5.65358 0,1.25635 0.39729,2.57718 0,3.76905 -0.28092,0.8428 -1.48723,1.08995 -1.88453,1.88454 -0.84278,1.68557 0.84279,3.96801 0,5.65358 -0.79459,1.58917 -2.65913,2.38164 -3.76905,3.76905 -5.92821,7.41026 -2.01091,4.34817 -7.53812,13.1917 -1.66466,2.66346 -4.41633,4.65119 -5.65358,7.53811 -0.74235,1.73216 1.04535,4.08556 0,5.65359 -0.6969,1.04535 -2.64534,-0.56186 -3.76906,0 -0.56186,0.28093 0,1.25635 0,1.88453 0,4.39723 0,8.79446 0,13.19169 0,3.14089 -1.16649,6.50641 0,9.42265 1.49385,3.7346 4.69393,6.57845 7.53812,9.42263 6.53864,6.53865 15.98598,13.31238 24.49886,16.96076 5.96308,2.55561 17.79024,4.90818 24.49887,5.65359 1.873,0.20811 3.76905,0 5.65358,0 1.05187,0 8.55997,0.28755 9.42265,0 0.84278,-0.28093 1.08993,-1.48724 1.88452,-1.88454 0.56186,-0.28092 1.36186,0.34846 1.88453,0 10.16653,-6.77768 -1.29795,-0.58657 5.65358,-7.53811 1.60155,-1.60154 4.29464,-1.95712 5.65359,-3.76905 0.75381,-1.00508 -0.3973,-2.57718 0,-3.76906 0.28093,-0.84278 1.48724,-1.08994 1.88452,-1.88453 0.28094,-0.56186 -0.44418,-1.44034 0,-1.88452 0.4442,-0.44419 1.44035,0.44418 1.88454,0 0.01,-0.01 -0.0158,-5.59059 0,-5.65359 3.07583,-12.30332 1.01193,7.12008 3.76905,-9.42264 0.30981,-1.85889 -0.36959,-3.80566 0,-5.65359 0.27548,-1.37736 1.36286,-2.46487 1.88453,-3.76905 0.73776,-1.84439 1.40274,-3.72643 1.88453,-5.65359 0.30471,-1.21884 0,-2.5127 0,-3.76905 0,-3.14088 0,-6.28177 0,-9.42264 0,-1.88453 0,-3.76906 0,-5.65359 0,-0.62817 -0.28093,-1.32267 0,-1.88452 0.39729,-0.79459 1.48723,-1.08995 1.88453,-1.88453 0.24776,-0.49553 0,-6.55266 0,-7.53812 0,-3.14088 0,-6.28176 0,-9.42264 0,-1.88452 -0.30982,-3.79469 0,-5.65358 0.32657,-1.95944 1.25635,-3.76905 1.88452,-5.65359"
           id="path2989"
           inkscape:connector-curvature="0" />
      </g>
      <path
         d="m 614.28571,628.07648 a 127.14286,58.57143 0 1 1 -254.28572,0 127.14286,58.57143 0 1 1 254.28572,0 z"
         sodipodi:ry="58.57143"
         sodipodi:rx="127.14286"
         sodipodi:cy="628.07648"
         sodipodi:cx="487.14285"
         id="path3770"
         style="fill:none;stroke:#0f0c0c;stroke-width:4.46700001;stroke-miterlimit:4;stroke-opacity:1;stroke-dasharray:none"
         sodipodi:type="arc" />
    </g>
    <g
       style="font-size:40px;font-style:normal;font-weight:normal;line-height:125%;letter-spacing:0px;word-spacing:0px;fill:#000000;fill-opacity:1;stroke:none;font-family:Sans"
       id="flowRoot3778">
      <g
         id="g3821">
        <desc
           id="desc3830">{&quot;start&quot;:100, &quot;duration&quot;:200}</desc>
        <path
           style="fill:none;stroke:#0f0c0c;stroke-opacity:1"
           id="path3791"
           d="m 418.93359,120.07919 0,-25.253907 -9.43359,0 0,-3.378906 22.69531,0 0,3.378906 -9.47265,0 0,25.253907 z"
           inkscape:connector-curvature="0" />
        <path
           style="fill:none;stroke:#0f0c0c;stroke-opacity:1"
           id="path3793"
           d="m 449.85156,113.3995 3.63281,0.44922 c -0.57293,2.1224 -1.63413,3.76953 -3.18359,4.94141 -1.54949,1.17187 -3.52866,1.75781 -5.9375,1.75781 -3.03386,0 -5.43946,-0.93425 -7.2168,-2.80274 -1.77734,-1.86848 -2.66601,-4.48892 -2.66601,-7.86132 0,-3.48957 0.89843,-6.1979 2.69531,-8.125 1.79687,-1.927067 4.1276,-2.890607 6.99219,-2.890628 2.77342,2.1e-5 5.03905,0.94403 6.79687,2.832028 1.7578,1.88804 2.6367,4.54429 2.63672,7.96875 -2e-5,0.20835 -0.007,0.52085 -0.0195,0.9375 l -15.46875,0 c 0.1302,2.27866 0.77473,4.02345 1.93359,5.23438 1.15885,1.21094 2.60416,1.81641 4.33594,1.8164 1.28905,1e-5 2.38931,-0.33853 3.30078,-1.01562 0.91145,-0.67708 1.6341,-1.75781 2.16797,-3.24219 z m -11.54297,-5.68359 11.58203,0 c -0.15626,-1.74478 -0.59897,-3.05337 -1.32812,-3.92578 -1.11981,-1.35415 -2.57163,-2.03124 -4.35547,-2.03125 -1.61459,10e-6 -2.97201,0.54038 -4.07226,1.62109 -1.10027,1.08075 -1.70899,2.52606 -1.82618,4.33594 z"
           inkscape:connector-curvature="0" />
        <path
           style="fill:none;stroke:#0f0c0c;stroke-opacity:1"
           id="path3795"
           d="m 456.51172,113.88778 3.47656,-0.54687 c 0.19531,1.39323 0.73893,2.46094 1.63086,3.20312 0.89192,0.74219 2.13866,1.11329 3.74023,1.11328 1.61458,1e-5 2.81249,-0.32877 3.59375,-0.98632 0.78124,-0.65755 1.17187,-1.42904 1.17188,-2.31446 -10e-6,-0.79426 -0.34507,-1.41926 -1.03516,-1.875 -0.48178,-0.31249 -1.6797,-0.70962 -3.59375,-1.1914 -2.57813,-0.65104 -4.36524,-1.21419 -5.36132,-1.68946 -0.9961,-0.47525 -1.75131,-1.1328 -2.26563,-1.97265 -0.51432,-0.83983 -0.77149,-1.76757 -0.77148,-2.78321 -1e-5,-0.92446 0.21158,-1.78058 0.63476,-2.56836 0.42318,-0.78774 0.99935,-1.44203 1.72852,-1.96289 0.54687,-0.403622 1.29231,-0.745418 2.23633,-1.025387 0.944,-0.279926 1.95637,-0.4199 3.0371,-0.419921 1.6276,2.1e-5 3.05663,0.234396 4.28711,0.703125 1.23046,0.468773 2.13866,1.103533 2.72461,1.904293 0.58592,0.8008 0.98957,1.87176 1.21094,3.21289 l -3.4375,0.46875 c -0.15626,-1.06769 -0.60874,-1.90102 -1.35742,-2.5 -0.74871,-0.59894 -1.80665,-0.89842 -3.17383,-0.89843 -1.61459,10e-6 -2.76693,0.26694 -3.45703,0.80078 -0.69011,0.53387 -1.03516,1.15887 -1.03516,1.875 0,0.45574 0.14323,0.8659 0.42969,1.23047 0.28645,0.37761 0.73567,0.69011 1.34766,0.9375 0.35155,0.13022 1.38671,0.4297 3.10547,0.89843 2.48696,0.66408 4.22199,1.2077 5.20507,1.63086 0.98306,0.42319 1.75454,1.03842 2.31446,1.84571 0.55988,0.8073 0.83982,1.8099 0.83984,3.00781 -2e-5,1.17188 -0.34181,2.27539 -1.02539,3.31055 -0.68361,1.03515 -1.66994,1.83593 -2.95898,2.40234 -1.28908,0.56641 -2.74741,0.84961 -4.375,0.84961 -2.69532,0 -4.74936,-0.5599 -6.16211,-1.67969 -1.41277,-1.11979 -2.31446,-2.77994 -2.70508,-4.98047 z"
           inkscape:connector-curvature="0" />
        <path
           style="fill:none;stroke:#0f0c0c;stroke-opacity:1"
           id="path3797"
           d="m 485.59375,116.93466 0.50781,3.10547 c -0.98959,0.20833 -1.87501,0.3125 -2.65625,0.3125 -1.27605,0 -2.26563,-0.20183 -2.96875,-0.60547 -0.70313,-0.40365 -1.19792,-0.93425 -1.48437,-1.5918 -0.28646,-0.65755 -0.42969,-2.04101 -0.42969,-4.15039 l 0,-11.93359 -2.57813,0 0,-2.734378 2.57813,0 0,-5.136719 3.49609,-2.109375 0,7.246094 3.53516,0 0,2.734378 -3.53516,0 0,12.1289 c 0,1.00261 0.0618,1.64714 0.18555,1.9336 0.12369,0.28646 0.32551,0.51432 0.60547,0.68359 0.27994,0.16927 0.68033,0.25391 1.20117,0.25391 0.39062,0 0.90494,-0.0456 1.54297,-0.13672 z"
           inkscape:connector-curvature="0" />
        <path
           style="fill:none;stroke:#0f0c0c;stroke-opacity:1"
           id="path3799"
           d="m 512.37109,120.07919 -3.51562,0 0,-22.402345 c -0.84637,0.807314 -1.95639,1.614604 -3.33008,2.421875 -1.3737,0.80731 -2.60743,1.41278 -3.70117,1.81641 l 0,-3.398441 c 1.96614,-0.924457 3.68489,-2.044247 5.15625,-3.359375 1.47134,-1.315078 2.51301,-2.591118 3.125,-3.828125 l 2.26562,0 z"
           inkscape:connector-curvature="0" />
        <path
           style="fill:none;stroke:#0f0c0c;stroke-opacity:1"
           id="path3801"
           d="m 539.87109,116.70028 0,3.37891 -18.92578,0 c -0.026,-0.84635 0.11068,-1.66016 0.41016,-2.44141 0.48177,-1.28906 1.25325,-2.55859 2.31445,-3.80859 1.06119,-1.24999 2.5944,-2.6953 4.59961,-4.33594 3.11197,-2.55207 5.21483,-4.57355 6.30859,-6.06445 1.09374,-1.49087 1.64061,-2.90037 1.64063,-4.228517 -2e-5,-1.393207 -0.49806,-2.568336 -1.49414,-3.525391 -0.99611,-0.957006 -2.29494,-1.435521 -3.89649,-1.435547 -1.69271,2.6e-5 -3.04688,0.507838 -4.0625,1.523438 -1.01563,1.015648 -1.52995,2.421897 -1.54296,4.21875 l -3.61329,-0.371094 c 0.2474,-2.695289 1.17839,-4.749324 2.79297,-6.162109 1.61458,-1.412733 3.78255,-2.119112 6.50391,-2.119141 2.74738,2.9e-5 4.92186,0.761747 6.52344,2.285156 1.60154,1.523463 2.40232,3.411482 2.40234,5.664063 -2e-5,1.145852 -0.23439,2.272152 -0.70312,3.378902 -0.46877,1.10679 -1.24677,2.27215 -2.33399,3.4961 -1.08725,1.22397 -2.89389,2.90365 -5.41992,5.03906 -2.10938,1.77084 -3.46355,2.97201 -4.0625,3.60352 -0.59897,0.63151 -1.09376,1.26628 -1.48438,1.90429 z"
           inkscape:connector-curvature="0" />
        <path
           style="fill:none;stroke:#0f0c0c;stroke-opacity:1"
           id="path3803"
           d="m 543.67969,112.5206 3.51562,-0.46875 c 0.40364,1.99219 1.09049,3.42773 2.06055,4.30664 0.97004,0.87891 2.15168,1.31836 3.54492,1.31836 1.65363,0 3.05012,-0.57292 4.18945,-1.71875 1.13931,-1.14583 1.70897,-2.5651 1.70899,-4.25782 -2e-5,-1.61457 -0.52736,-2.94595 -1.58203,-3.99414 -1.0547,-1.04816 -2.39585,-1.57225 -4.02344,-1.57226 -0.66407,10e-6 -1.4909,0.13022 -2.48047,0.39062 l 0.39063,-3.08594 c 0.23436,0.0261 0.42316,0.0391 0.5664,0.0391 1.49739,1e-5 2.84504,-0.39061 4.04297,-1.17188 1.1979,-0.78123 1.79686,-1.98566 1.79688,-3.61328 -2e-5,-1.28904 -0.43622,-2.356747 -1.3086,-3.203125 -0.87241,-0.846328 -1.99871,-1.269505 -3.3789,-1.269531 -1.3672,2.6e-5 -2.50652,0.429713 -3.41797,1.289063 -0.91147,0.859398 -1.4974,2.148459 -1.75782,3.867187 l -3.51562,-0.625 c 0.42969,-2.356747 1.40625,-4.182917 2.92969,-5.478516 1.52343,-1.295544 3.41796,-1.94333 5.68359,-1.943359 1.56249,2.9e-5 3.00129,0.335315 4.31641,1.005859 1.31509,0.6706 2.32094,1.585313 3.01758,2.744141 0.69659,1.158878 1.0449,2.389346 1.04492,3.691406 -2e-5,1.236995 -0.33205,2.363305 -0.9961,3.378905 -0.66408,1.01564 -1.64715,1.82293 -2.94922,2.42188 1.6927,0.39064 3.0078,1.20118 3.94532,2.43164 0.93748,1.23048 1.40623,2.77019 1.40625,4.61914 -2e-5,2.5 -0.91148,4.61914 -2.73438,6.35742 -1.82293,1.73828 -4.12762,2.60742 -6.91406,2.60742 -2.51303,0 -4.59962,-0.7487 -6.25977,-2.24609 -1.66015,-1.49739 -2.60742,-3.4375 -2.84179,-5.82031 z"
           inkscape:connector-curvature="0" />
      </g>
    </g>
  </g>
</svg>
